<svg xmlns="http://www.w3.org/2000/svg" xmlns:xlink="http://www.w3.org/1999/xlink" width="785.15" height="401.754" viewBox="0 0 785.15 401.754">
  <defs>
    <clipPath id="clip-path">
      <path id="Path_1447" data-name="Path 1447" d="M921.649,575.967h313.169a.318.318,0,0,1,.317.318V775.248a.318.318,0,0,1-.317.317H921.649a.318.318,0,0,1-.317-.317V576.285a.318.318,0,0,1,.317-.318" transform="translate(-921.332 -575.967)" fill="none" clip-rule="evenodd"/>
    </clipPath>
    <linearGradient id="linear-gradient" x1="0.5" y1="1.312" x2="0.5" y2="0.125" gradientUnits="objectBoundingBox">
      <stop offset="0" stop-color="#a4d1ff"/>
      <stop offset="1" stop-color="#f2fbff"/>
    </linearGradient>
    <clipPath id="clip-path-2">
      <path id="Path_1459" data-name="Path 1459" d="M783.91,761.19H708.384A12.691,12.691,0,0,0,695.8,773.91V931.85a12.691,12.691,0,0,0,12.587,12.72H783.91A12.691,12.691,0,0,0,796.5,931.85V773.91a12.691,12.691,0,0,0-12.587-12.72" transform="translate(-695.797 -761.19)" fill="none" clip-rule="evenodd"/>
    </clipPath>
    <linearGradient id="linear-gradient-2" x1="0.5" y1="0.066" x2="0.5" y2="0.957" gradientUnits="objectBoundingBox">
      <stop offset="0" stop-color="#004f7f"/>
      <stop offset="0.054" stop-color="#024b79"/>
      <stop offset="0.453" stop-color="#103757"/>
      <stop offset="0.783" stop-color="#192a42"/>
      <stop offset="1" stop-color="#1d263b"/>
    </linearGradient>
    <clipPath id="clip-path-3">
      <path id="Path_1507" data-name="Path 1507" d="M1535.7,949.437h111.284c7.721,0,14.038,9.218,14.038,20.482h0c0,11.266-6.317,20.484-14.038,20.484H1535.7c-7.72,0-14.039-9.218-14.039-20.484h0c0-11.265,6.317-20.482,14.039-20.482" transform="translate(-1521.657 -949.437)" fill="none" clip-rule="evenodd"/>
    </clipPath>
    <linearGradient id="linear-gradient-4" x1="0.5" y1="0.756" x2="0.5" y2="-0.231" gradientUnits="objectBoundingBox">
      <stop offset="0" stop-color="#e06d4d"/>
      <stop offset="1" stop-color="#ffd481"/>
    </linearGradient>
    <clipPath id="clip-path-4">
      <path id="Path_1512" data-name="Path 1512" d="M1886.14,1043.331H1769.784c-8.074,0-14.677,9.219-14.677,20.484h0c0,11.266,6.6,20.485,14.677,20.485H1886.14c8.072,0,14.679-9.219,14.679-20.485h0c0-11.266-6.6-20.484-14.679-20.484" transform="translate(-1755.107 -1043.331)" fill="none" clip-rule="evenodd"/>
    </clipPath>
    <linearGradient id="linear-gradient-5" x1="0.5" y1="0.665" x2="0.5" y2="-0.122" gradientUnits="objectBoundingBox">
      <stop offset="0" stop-color="#1b70af"/>
      <stop offset="1" stop-color="#24a1fb"/>
    </linearGradient>
    <clipPath id="clip-path-5">
      <path id="Path_1517" data-name="Path 1517" d="M1770.971,1071.966h-12.6c-4.834,2.537-3.437,12.594-6.307,19.181l7.442-5.438,5.4,5.09c4.185-5.971,1.79-16.162,6.065-18.833" transform="translate(-1752.065 -1071.966)" fill="none" clip-rule="evenodd"/>
    </clipPath>
    <linearGradient id="linear-gradient-6" x1="0.5" y1="0.665" x2="0.5" y2="-0.122" xlink:href="#linear-gradient-5"/>
  </defs>
  <g id="Group_624" data-name="Group 624" transform="translate(-983.794 -1218.782)">
    <path id="Path_1420" data-name="Path 1420" d="M246.9,802.982a4.769,4.769,0,0,0-6.737,0l0,0a4.771,4.771,0,0,0,0,6.737v.005a4.768,4.768,0,0,0,6.742-6.742Zm-3.368-4.051a7.4,7.4,0,0,1,5.247,2.172l0,0a7.416,7.416,0,1,1-10.488,10.489l0,0a7.413,7.413,0,0,1,0-10.489l0,0,0,0A7.4,7.4,0,0,1,243.531,798.931Z" transform="translate(842.726 585.731)" fill="#e06d4d"/>
    <path id="Path_1422" data-name="Path 1422" d="M348.845,851.537h0a1.6,1.6,0,0,1,1.6,1.6v13.95a1.6,1.6,0,1,1-3.191,0v-13.95a1.6,1.6,0,0,1,1.6-1.6" transform="translate(770.501 566.278)" fill="#219ef8" fill-rule="evenodd"/>
    <path id="Path_1421" data-name="Path 1421" d="M348.544,868.981h0a1.6,1.6,0,0,1-1.6,1.6H333a1.6,1.6,0,0,1,0-3.192h13.95a1.6,1.6,0,0,1,1.6,1.6" transform="translate(779.374 557.405)" fill="#219ef8" fill-rule="evenodd"/>
    <path id="Path_1424" data-name="Path 1424" d="M709.622,610.738h0a1.509,1.509,0,0,1,1.505,1.5V625.4a1.509,1.509,0,0,1-1.505,1.5h0a1.509,1.509,0,0,1-1.5-1.5V612.242a1.509,1.509,0,0,1,1.5-1.5" transform="translate(480.462 727.095)" fill="#219ef8" fill-rule="evenodd"/>
    <path id="Path_1423" data-name="Path 1423" d="M709.337,627.19h0a1.509,1.509,0,0,1-1.505,1.505H694.674a1.509,1.509,0,0,1-1.5-1.505h0a1.509,1.509,0,0,1,1.5-1.5h13.158a1.509,1.509,0,0,1,1.505,1.5" transform="translate(488.832 718.726)" fill="#219ef8" fill-rule="evenodd"/>
    <path id="Path_1426" data-name="Path 1426" d="M865.213,488.66a4.771,4.771,0,0,0-6.737,0l-.005,0a4.772,4.772,0,0,0,.005,6.737v0a4.767,4.767,0,0,0,6.742-6.742Zm-3.369-4.052a7.4,7.4,0,0,1,5.247,2.175h0A7.417,7.417,0,1,1,856.6,497.273l0,0a7.414,7.414,0,0,1,0-10.489l0,0h0A7.393,7.393,0,0,1,861.845,484.608Z" transform="translate(399.549 799.711)" fill="#e06d4d"/>
    <path id="Path_1425" data-name="Path 1425" d="M1008.239,648.526a4.07,4.07,0,0,0-5.75-.006l0,.006a4.07,4.07,0,0,0,0,5.75v0a4.069,4.069,0,0,0,5.755-5.754Zm-2.875-3.46a6.317,6.317,0,0,1,4.478,1.856l0,0a6.33,6.33,0,1,1-8.953,8.952l0,0a6.329,6.329,0,0,1,0-8.953h0l0,0A6.319,6.319,0,0,1,1005.363,645.066Z" transform="translate(280.588 579.875)" fill="#e06d4d"/>
    <path id="Path_1429" data-name="Path 1429" d="M1183.64,522.86h0a1.342,1.342,0,0,1,1.338,1.338V535.89a1.338,1.338,0,1,1-2.675,0V524.2a1.342,1.342,0,0,1,1.338-1.338" transform="translate(193.98 743.295)" fill="#219ef8" fill-rule="evenodd"/>
    <path id="Path_1430" data-name="Path 1430" d="M1183.387,537.482h0a1.342,1.342,0,0,1-1.337,1.338h-11.693a1.338,1.338,0,1,1,0-2.675h11.693a1.341,1.341,0,0,1,1.337,1.337" transform="translate(201.417 735.857)" fill="#219ef8" fill-rule="evenodd"/>
    <path id="Path_1428" data-name="Path 1428" d="M1372.181,394.778h0a1.342,1.342,0,0,1,1.338,1.338v11.693a1.337,1.337,0,0,1-2.675,0V396.116a1.342,1.342,0,0,1,1.337-1.338" transform="translate(85.421 824.004)" fill="#219ef8" fill-rule="evenodd"/>
    <path id="Path_1427" data-name="Path 1427" d="M1371.929,409.4h0a1.342,1.342,0,0,1-1.338,1.338H1358.9a1.338,1.338,0,0,1,0-2.676h11.693a1.342,1.342,0,0,1,1.338,1.338" transform="translate(92.857 816.567)" fill="#219ef8" fill-rule="evenodd"/>
    <path id="Path_1431" data-name="Path 1431" d="M1612.989,714.274a6.748,6.748,0,0,0-9.528-.006l-.006.006a6.746,6.746,0,0,0,.006,9.529v.007a6.743,6.743,0,0,0,9.536-9.536Zm-4.764-5.729a10.463,10.463,0,0,1,7.421,3.073l0,0a10.489,10.489,0,1,1-14.834,14.834l0,0a10.484,10.484,0,0,1,0-14.834l0,0,0,0A10.465,10.465,0,0,1,1608.224,708.545Z" transform="translate(-5.606 604.335)" fill="#e06d4d"/>
    <path id="Path_1432" data-name="Path 1432" d="M1517.314,614.632a4.9,4.9,0,0,0-6.926-.006l-.006.006a4.9,4.9,0,0,0,.006,6.927v.005a4.9,4.9,0,0,0,6.932-6.932Zm-3.463-4.167a7.608,7.608,0,0,1,5.4,2.236l0,0a7.625,7.625,0,1,1-10.784,10.784l0,0a7.625,7.625,0,0,1,0-10.784l0,0,0,0A7.606,7.606,0,0,1,1513.851,610.465Z" transform="translate(25.627 639.248)" fill="#e06d4d"/>
    <path id="Path_1433" data-name="Path 1433" d="M1855.682,803.372h0a1.957,1.957,0,0,1,1.951,1.951V811.9h6.577a1.957,1.957,0,0,1,1.951,1.951h0a1.957,1.957,0,0,1-1.951,1.951h-6.577v6.578a1.957,1.957,0,0,1-1.951,1.951h0a1.956,1.956,0,0,1-1.951-1.951V815.8h-6.578a1.957,1.957,0,0,1-1.951-1.951h0a1.957,1.957,0,0,1,1.951-1.951h6.578v-6.578a1.956,1.956,0,0,1,1.951-1.951" transform="translate(-161.158 524.245)" fill="#219ef8" fill-rule="evenodd"/>
    <g id="Group_553" data-name="Group 553" transform="translate(734.944 867.237)">
      <path id="Path_1440" data-name="Path 1440" d="M248.85,1018.784s46.571-33.91,70.6-26.419,30.4,13.481,46.9-8.265c23.707-31.237,50.736-23.063,76.3-13.988,13.667,4.852,26.338,5.368,32.076-9.369,10.963-28.154,24.294-37.615,45.374-38.879,19.394-1.163,42.289,24.917,59.544-5.241,7.656-13.38,21.7-32.177,38.677-29.407s23.093,9.568,32.889,16.027,23.633-.462,32.288-6.46c11.976-8.3,31.51-20.529,43.6-6.46,61.743,71.819,22.731-27.389,105.7,51.619L850.9,959.17c30.737,27.224,52.978-24.268,81.228,8.529,17.977,20.869,28.293,33.221,36.282,32.76,27.577-1.593,39.333-16.077,65.591,20.35-1.394-.662-785.15-2.023-785.15-2.023" transform="translate(0 -271.342)" fill="#def1fb" fill-rule="evenodd"/>
      <path id="Path_1446" data-name="Path 1446" d="M905.6,539.258h302.433a19.768,19.768,0,0,1,19.71,19.71V735.246H885.889V558.968a19.768,19.768,0,0,1,19.711-19.71" transform="translate(-384.942 -63.086)" fill="#1b70af" fill-rule="evenodd"/>
      <g id="Group_539" data-name="Group 539" transform="translate(514.972 490.699)">
        <g id="Group_538" data-name="Group 538" clip-path="url(#clip-path)">
          <rect id="Rectangle_537" data-name="Rectangle 537" width="313.803" height="199.599" transform="translate(0 0)" fill="url(#linear-gradient)"/>
        </g>
      </g>
      <path id="Path_1448" data-name="Path 1448" d="M1203.557,1105.854c-1.388,25.1-5.061,31.449-30.516,45.753h112.838c-25.454-14.3-29.127-20.652-30.516-45.753l-25.9-2.04Z" transform="translate(-558.459 -404.229)" fill="#78afdf" fill-rule="evenodd"/>
      <path id="Path_1449" data-name="Path 1449" d="M1227.743,1034.513v12.955a19.769,19.769,0,0,1-19.71,19.711H905.6a19.769,19.769,0,0,1-19.711-19.711v-12.955Z" transform="translate(-384.942 -362.353)" fill="#b9e4ff" fill-rule="evenodd"/>
      <rect id="Rectangle_538" data-name="Rectangle 538" width="341.853" height="20.708" transform="translate(500.947 659.389)" fill="#1b70af"/>
      <path id="Path_1450" data-name="Path 1450" d="M1275.6,1068.165a3.51,3.51,0,1,1-3.51,3.511,3.51,3.51,0,0,1,3.51-3.511" transform="translate(-618.311 -382.688)" fill="#e06d4d" fill-rule="evenodd"/>
      <path id="Path_1451" data-name="Path 1451" d="M1308.441,1068.165a3.51,3.51,0,1,1-3.509,3.511,3.511,3.511,0,0,1,3.509-3.511" transform="translate(-638.157 -382.688)" fill="#3dabf9" fill-rule="evenodd"/>
      <path id="Path_1452" data-name="Path 1452" d="M1341.28,1068.165a3.51,3.51,0,1,1-3.51,3.511,3.51,3.51,0,0,1,3.51-3.511" transform="translate(-658 -382.688)" fill="#3dabf9" fill-rule="evenodd"/>
      <rect id="Rectangle_539" data-name="Rectangle 539" width="53.617" height="7.139" transform="translate(643.977 704.826)" fill="#6497c8"/>
      <rect id="Rectangle_540" data-name="Rectangle 540" width="225.75" height="13.599" transform="translate(557.923 645.79)" fill="#00a0e8"/>
      <rect id="Rectangle_541" data-name="Rectangle 541" width="35.359" height="6.217" transform="translate(570.162 639.573)" fill="#1b70af"/>
      <path id="Path_1453" data-name="Path 1453" d="M1114.416,671.359h35.358v6.217h-35.358Zm53.62,0h35.358v6.217h-35.358Zm53.621,0h35.358v6.217h-35.358Zm-160.863,0h35.359v6.217H1060.8Z" transform="translate(-490.633 -142.91)" fill="#1b70af" fill-rule="evenodd"/>
      <rect id="Rectangle_542" data-name="Rectangle 542" width="27.976" height="104.908" transform="translate(573.658 534.665)" fill="#00a0e8"/>
      <rect id="Rectangle_543" data-name="Rectangle 543" width="230.797" height="7.383" transform="translate(553.059 521.066)" fill="#00a0e8"/>
      <rect id="Rectangle_544" data-name="Rectangle 544" width="221.086" height="4.565" transform="translate(557.716 509.119)" fill="#1b70af"/>
      <path id="Path_1454" data-name="Path 1454" d="M1029.343,500.135l111.121-65.277,109.965,65.277v8.984H1029.343Z" transform="translate(-471.627)" fill="#00a0e8" fill-rule="evenodd"/>
      <rect id="Rectangle_545" data-name="Rectangle 545" width="35.358" height="6.217" transform="translate(623.784 639.573)" fill="#1b70af"/>
      <rect id="Rectangle_546" data-name="Rectangle 546" width="35.359" height="6.217" transform="translate(677.404 639.573)" fill="#1b70af"/>
      <rect id="Rectangle_547" data-name="Rectangle 547" width="35.359" height="6.217" transform="translate(731.025 639.573)" fill="#1b70af"/>
      <rect id="Rectangle_548" data-name="Rectangle 548" width="27.976" height="104.908" transform="translate(627.279 534.665)" fill="#00a0e8"/>
      <rect id="Rectangle_549" data-name="Rectangle 549" width="27.976" height="104.908" transform="translate(680.9 534.665)" fill="#00a0e8"/>
      <rect id="Rectangle_550" data-name="Rectangle 550" width="27.976" height="104.908" transform="translate(734.521 534.665)" fill="#00a0e8"/>
      <path id="Path_1455" data-name="Path 1455" d="M1247.846,700.446h0a2.142,2.142,0,0,1,2.138,2.136v89.708a2.137,2.137,0,0,1-4.275,0V702.582a2.142,2.142,0,0,1,2.137-2.136m-41.624,0h0a2.142,2.142,0,0,1,2.138,2.136v89.708a2.137,2.137,0,0,1-4.274,0V702.582A2.142,2.142,0,0,1,1206.222,700.446Zm-12,0h0a2.142,2.142,0,0,1,2.138,2.136v89.708a2.137,2.137,0,0,1-4.275,0V702.582A2.142,2.142,0,0,1,1194.225,700.446Zm-41.623,0h0a2.142,2.142,0,0,1,2.137,2.136v89.708a2.137,2.137,0,0,1-4.274,0V702.582A2.142,2.142,0,0,1,1152.6,700.446Zm-12,0h0a2.142,2.142,0,0,1,2.137,2.136v89.708a2.137,2.137,0,0,1-4.274,0V702.582A2.142,2.142,0,0,1,1140.6,700.446Zm-41.623,0h0a2.142,2.142,0,0,1,2.137,2.136v89.708a2.137,2.137,0,0,1-4.274,0V702.582A2.142,2.142,0,0,1,1098.981,700.446Zm-12,0h0a2.142,2.142,0,0,1,2.137,2.136v89.708a2.137,2.137,0,0,1-4.274,0V702.582A2.142,2.142,0,0,1,1086.984,700.446Zm172.859,0h0a2.142,2.142,0,0,1,2.138,2.136v89.708a2.137,2.137,0,0,1-4.275,0V702.582A2.142,2.142,0,0,1,1259.843,700.446Z" transform="translate(-505.166 -160.487)" fill="#3dabf9" fill-rule="evenodd"/>
      <path id="Path_1456" data-name="Path 1456" d="M947.981,900.826c-1.342-.124-3.143.289-6.23,2.332-4.647,3.076-4.737,4.6-9.475,2.977s-9.2-5.277-11.369-2.436c-1.024,1.344-1.934,5.219-.9,8.375,1.157,3.514,4.441,6.384,6.58,8.95,4.059,4.872,3.248,5.684,2.3,9.338-6.557,25.3-67.291,97.775,2.993,100.644,7.636.311,13.2-.222,16.1-.319,5.753.192,22.667.609,27.544-.533,48.578-11.376-2.374-76.321-8.456-99.791-.947-3.653-1.759-4.466,2.3-9.338,2.139-2.566,5.423-5.436,6.579-8.95,1.039-3.156.129-7.03-.895-8.375-2.166-2.841-6.632.812-11.369,2.436s-4.827.1-9.474-2.977c-3.087-2.043-4.888-2.456-6.23-2.332" transform="translate(-392.429 -281.558)" fill="#4195d4" fill-rule="evenodd"/>
      <path id="Path_1457" data-name="Path 1457" d="M920.726,912a11.444,11.444,0,0,0-.141,6.838c1.157,3.514,4.441,6.384,6.58,8.949,4.059,4.871,3.248,5.684,2.3,9.338-6.256,24.137-61.333,90.759-5.367,99.33-11.919-14.737-11.91-23.4-7.856-39.155,4.23-16.44,12.923-40.012,19.9-57.233,0,0,1.136-.531.325-5.646s-13.072-14.938-15.1-19.566a7.522,7.522,0,0,1-.642-2.855" transform="translate(-393.001 -288.323)" fill="#1b70af" fill-rule="evenodd"/>
      <path id="Path_1458" data-name="Path 1458" d="M1002.173,1035.63l-.887-6.994,7.511-.008-1.211,6.938q9.073,1.094,11.778,8.76l-8.835,2.67q-1.319-3.583-5.464-3.623-3.484-.032-3.506,2.213a1.873,1.873,0,0,0,.582,1.4,8.119,8.119,0,0,0,3.252,1.193,60.993,60.993,0,0,1,8.729,2.445,9.732,9.732,0,0,1,4.371,3.621,10.121,10.121,0,0,1,1.7,5.966,10.685,10.685,0,0,1-3.493,8.028,15.813,15.813,0,0,1-9.461,3.835l1.121,7.052-7.92.064,1.388-7.168q-10.151-1.306-12.679-10.842l9.863-1.738q1.225,4.33,6.331,4.379,3.986.038,4.012-2.149a2.042,2.042,0,0,0-.914-1.8,9.527,9.527,0,0,0-3.281-1.164q-9.266-1.961-11.728-4.911a10.066,10.066,0,0,1-2.421-6.74,11.268,11.268,0,0,1,2.8-7.411q2.767-3.212,8.369-4.008" transform="translate(-447.337 -358.797)" fill="#ebf7ff" fill-rule="evenodd"/>
      <g id="Group_541" data-name="Group 541" transform="translate(425.721 563.998)">
        <g id="Group_540" data-name="Group 540" clip-path="url(#clip-path-2)">
          <rect id="Rectangle_556" data-name="Rectangle 556" width="100.7" height="183.381" transform="translate(0 0)" fill="url(#linear-gradient-2)"/>
        </g>
      </g>
      <rect id="Rectangle_557" data-name="Rectangle 557" width="88.695" height="144.927" transform="translate(431.723 576.5)" fill="url(#linear-gradient)"/>
      <path id="Path_1460" data-name="Path 1460" d="M804.892,1178.524h9.868a4.658,4.658,0,0,1,0,9.316h-9.868a4.658,4.658,0,1,1,0-9.316" transform="translate(-333.184 -449.374)" fill="#89ccfb" fill-rule="evenodd"/>
      <path id="Path_1461" data-name="Path 1461" d="M904.4,1122.1a5.658,5.658,0,1,1-5.659,5.659,5.658,5.658,0,0,1,5.659-5.659" transform="translate(-392.708 -415.281)" fill="#01867c" fill-rule="evenodd"/>
      <path id="Path_1462" data-name="Path 1462" d="M724.839,1124.015h58.855a4.875,4.875,0,0,1,4.861,4.861h0a4.875,4.875,0,0,1-4.861,4.861H724.839a4.875,4.875,0,0,1-4.861-4.861h0a4.875,4.875,0,0,1,4.861-4.861" transform="translate(-284.688 -416.436)" fill="#fff" fill-rule="evenodd"/>
      <path id="Path_1463" data-name="Path 1463" d="M729.326,1130.477a2.3,2.3,0,1,1-2.3,2.3,2.3,2.3,0,0,1,2.3-2.3" transform="translate(-288.945 -420.341)" fill="#dbdcdc" fill-rule="evenodd"/>
      <path id="Path_1464" data-name="Path 1464" d="M746.519,1132.909H780.8a1.345,1.345,0,0,1,1.34,1.341h0a1.345,1.345,0,0,1-1.34,1.342H746.519a1.346,1.346,0,0,1-1.341-1.342h0a1.345,1.345,0,0,1,1.341-1.341" transform="translate(-299.915 -421.81)" fill="#dbdcdc" fill-rule="evenodd"/>
      <path id="Path_1465" data-name="Path 1465" d="M875.338,1130.473h2.808a1.051,1.051,0,0,1,1.048,1.048v2.347a1.051,1.051,0,0,1-1.048,1.048h-2.808a1.051,1.051,0,0,1-1.048-1.048v-2.347a1.051,1.051,0,0,1,1.048-1.048" transform="translate(-377.933 -420.338)" fill="#dbdcdc" fill-rule="evenodd"/>
      <path id="Path_1466" data-name="Path 1466" d="M878.631,1133.016a1.216,1.216,0,1,1-1.215,1.215,1.215,1.215,0,0,1,1.215-1.215" transform="translate(-379.822 -421.875)" fill="#fff" fill-rule="evenodd"/>
      <path id="Path_1467" data-name="Path 1467" d="M910.1,1131.532a1.927,1.927,0,1,1-1.927,1.927,1.926,1.926,0,0,1,1.927-1.927" transform="translate(-398.407 -420.978)" fill="#fff" fill-rule="evenodd"/>
      <rect id="Rectangle_558" data-name="Rectangle 558" width="242.34" height="9.306" transform="translate(547.287 512.52)" fill="#00a0e8"/>
      <path id="Path_1468" data-name="Path 1468" d="M1276.756,485.667a20.909,20.909,0,1,1-20.909,20.909,20.909,20.909,0,0,1,20.909-20.909" transform="translate(-608.496 -30.703)" fill="#e3f3ff" fill-rule="evenodd"/>
      <path id="Path_1469" data-name="Path 1469" d="M1293.265,505.033l-.522-4.116,4.42,0-.713,4.083q5.34.643,6.931,5.154l-5.2,1.571a3.131,3.131,0,0,0-3.215-2.132q-2.049-.02-2.062,1.3a1.1,1.1,0,0,0,.342.822,4.784,4.784,0,0,0,1.913.7,35.947,35.947,0,0,1,5.137,1.438,5.725,5.725,0,0,1,2.572,2.131,5.952,5.952,0,0,1,1,3.51,6.292,6.292,0,0,1-2.055,4.724,9.307,9.307,0,0,1-5.568,2.257l.659,4.149-4.661.039.817-4.219q-5.974-.769-7.462-6.38l5.8-1.023q.721,2.549,3.726,2.577c1.563.015,2.353-.406,2.361-1.266a1.2,1.2,0,0,0-.538-1.061,5.6,5.6,0,0,0-1.93-.684q-5.454-1.154-6.9-2.89a5.924,5.924,0,0,1-1.425-3.966,6.63,6.63,0,0,1,1.646-4.362,7.642,7.642,0,0,1,4.924-2.358" transform="translate(-626.474 -39.915)" fill="#00a0e8" fill-rule="evenodd"/>
      <path id="Path_1470" data-name="Path 1470" d="M726.869,983.354h74.151a1.754,1.754,0,0,1,1.748,1.748v9.517a1.753,1.753,0,0,1-1.748,1.748H726.869a1.753,1.753,0,0,1-1.748-1.748V985.1a1.753,1.753,0,0,1,1.748-1.748" transform="translate(-287.795 -331.439)" fill="#3dabf9" fill-rule="evenodd"/>
      <path id="Path_1471" data-name="Path 1471" d="M727.744,1032.19h72.4a2.623,2.623,0,0,1,0,5.246h-72.4a2.623,2.623,0,1,1,0-5.246" transform="translate(-287.795 -360.949)" fill="#3dabf9" fill-rule="evenodd"/>
      <path id="Path_1472" data-name="Path 1472" d="M727.744,1061.883h72.4a2.631,2.631,0,0,1,2.623,2.623h0a2.631,2.631,0,0,1-2.623,2.623h-72.4a2.631,2.631,0,0,1-2.623-2.623h0a2.631,2.631,0,0,1,2.623-2.623" transform="translate(-287.795 -378.892)" fill="#3dabf9" fill-rule="evenodd"/>
      <path id="Path_1473" data-name="Path 1473" d="M727.744,1091.576h40.3a2.63,2.63,0,0,1,2.623,2.623h0a2.63,2.63,0,0,1-2.623,2.623h-40.3a2.631,2.631,0,0,1-2.623-2.623h0a2.63,2.63,0,0,1,2.623-2.623" transform="translate(-287.795 -396.834)" fill="#3dabf9" fill-rule="evenodd"/>
      <path id="Path_1483" data-name="Path 1483" d="M645.57,1208.245H632.63a1.2,1.2,0,0,1-1.188-1.038,1.216,1.216,0,0,1-.007-.251l.526-6.8a7.559,7.559,0,0,1,1.292-.427,1.311,1.311,0,0,0,.96-.87c.009-.032.018-.065.026-.1.3-1.309,2.183-1.724,2.531-.447.046.166.085.326.118.481.008.038.017.077.024.114.056.275.1.528.124.749l0,.016a7.319,7.319,0,0,1,.064.923c.171.217.336.431.5.642.082.1.161.209.239.311.17.222.335.437.5.643.075.1.15.192.225.285.18.225.356.438.533.636.08.09.159.178.242.263a3.724,3.724,0,0,0,2.135,1.292c1.4.192,3.7.347,4.8,2.406a.757.757,0,0,1,.056.131.8.8,0,0,1-.761,1.038" transform="translate(-231.182 -460.867)" fill="#604302" fill-rule="evenodd"/>
      <path id="Path_1484" data-name="Path 1484" d="M576.43,1047.9v7.964c0,8.828,1.557,28.217,2.122,38.931l5.926-.117,4.863-38.642,8.309,1.189.41-10.545h0c.1-36.454-18.574-27.966-16.941-7.3.18,2.275-5.56,6.021-4.688,8.516" transform="translate(-197.892 -354.557)" fill="#1d263b" fill-rule="evenodd"/>
      <path id="Path_1485" data-name="Path 1485" d="M611.369,1089.582l-14.075,3.024,10.152,23.052,3.809,19.622,6.247.161c-.164-9.512-.916-19.081-1.372-24.559-.239-2.871-3.1-13.03-4.762-21.3" transform="translate(-210.554 -395.629)" fill="#1d263b" fill-rule="evenodd"/>
      <path id="Path_1486" data-name="Path 1486" d="M589.163,1211.01c-.107,1.888-6.8,1.238-7.87.67a1.287,1.287,0,0,1-.619-1.151,8.043,8.043,0,0,1,.515-2.673c.429-1.331.369-1.306.667-2.214,0,0-.077-1.479,2.116-2.043s3,3.116,3.371,3.824c.343.648,1.676,1.536,1.813,3.132a3.155,3.155,0,0,1,.007.455" transform="translate(-200.507 -464.49)" fill="#604302" fill-rule="evenodd"/>
      <path id="Path_1487" data-name="Path 1487" d="M616,1004.451c2.033,4.46,3.357,5.877,9.173,6.744,4.718.7,13.7-9.908,14.377-11.357s-1.9-5.231-2.732-4.794-10.511,7.836-11.173,7.787-2.954-1.091-8.131-4.453c-.49-.315-2.944,3.918-1.514,6.072" transform="translate(-221.589 -338.482)" fill="#fda600" fill-rule="evenodd"/>
      <path id="Path_1488" data-name="Path 1488" d="M568.4,1003.023c-1.937,2.888,3.9,19.73,2.282,34.4a55.476,55.476,0,0,0,24-1.293c-.013-11.1-1.032-24.337-3.332-32.627-.542-1.346-1.611-2.3-4.259-3.045-6.445-1.806-16.036-1.395-18.69,2.562" transform="translate(-192.853 -341.156)" fill="#0097d6" fill-rule="evenodd"/>
      <path id="Path_1489" data-name="Path 1489" d="M594.508,974.232a6.775,6.775,0,0,1-2.792,2.883l.034,1.843.269.228c1.05,1.125.02,3.79-1.07,4.716-1.779-.207-5.559-3.682-4.65-5.028l.395-.441.087-2.608c-.156-.008-1.291-.654-1.63-.758a1.753,1.753,0,0,1-.867-1.443c-.034-.687,1.03-.464,1.03-.464-1.288-1.762-2.745-3.2-.855-4.787s6.231-2.511,6.231-2.511l2.613-.907c-.333.9.361,3.483,1.032,5.361.6,1.684,1.028,2.213.173,3.916" transform="translate(-202.251 -320.321)" fill="#f7cccf" fill-rule="evenodd"/>
      <path id="Path_1490" data-name="Path 1490" d="M594.822,993.337s1.478,2.535,2.692,2.765.593.06,1.046.006l-.034-1.843c-.836.134-1.655.068-3.7-.928" transform="translate(-209.06 -337.471)" fill="#e98385" fill-rule="evenodd"/>
      <path id="Path_1491" data-name="Path 1491" d="M571.149,1007.014a3.363,3.363,0,0,0-4.127-3.246c-4.992,1.273-5.162,16.366-3.847,20.314.921,2.669,15.166,5.849,16.977,5.285a4.426,4.426,0,0,0,2.416-1.877,1.181,1.181,0,0,0-.644-1.79c-2.919-1.291-11.567-4.19-11.734-4.986-1.392-6.622,1.144-9.762.959-13.7" transform="translate(-189.516 -343.742)" fill="#76c5fb" fill-rule="evenodd"/>
      <path id="Path_1492" data-name="Path 1492" d="M669.84,994.234a4.676,4.676,0,0,0,2.029,3.969c.108-.193.757-1.028,1.186-1.671.922-1.379-1.255-4.26-1.894-3.622Z" transform="translate(-254.376 -337.158)" fill="#fff" fill-rule="evenodd"/>
      <path id="Path_1493" data-name="Path 1493" d="M675.008,982.539c.136-.629.707-3.115,1.171-3.534.237-.213.293-.116.4.019a1.132,1.132,0,0,1,.144.66,9.6,9.6,0,0,1-.16,1.13c1.4-.735,2.746-2.455,3.771-3.634.417-.478,1.08-.427.68.427a17.744,17.744,0,0,1-1.624,2.265l1.771-1.142c.492-.266.488.339.255.592-.385.417-1.568,1.53-1.568,1.53l1.29-.469c.494-.18.236.429.1.536-.3.245-1.374.929-1.374.929l.592-.2c.671-.222.18.641-.014.7-.041.013-2.358,1.48-2.761,1.722a9.678,9.678,0,0,0-2.2,2.44,4.6,4.6,0,0,1-1.5-2.818Z" transform="translate(-256.896 -327.526)" fill="#f4b1b1" fill-rule="evenodd"/>
      <path id="Path_1494" data-name="Path 1494" d="M590.074,956.22c.768,2.423.087,4.4-2.306,5.084-1.781.508-4.211.372-5.476,1.861-.626.738-.563,1.8.139,3.445.207.484.483.841-.335.462-.375-.174-.993-.417-1.2-.246a.972.972,0,0,0,.142,1.435c.167.114.484.286.484.286a2.284,2.284,0,0,1-1.921-.257c-.976-.621-3.829-2.506-3.67-5.7.236-4.729,4.844-6.345,8.961-8.824,1.81-1.09,4.58.535,5.188,2.451" transform="translate(-197.637 -313.349)" fill="#1d263b" fill-rule="evenodd"/>
      <rect id="Rectangle_607" data-name="Rectangle 607" width="80.017" height="37.741" transform="matrix(0.998, -0.067, 0.067, 0.998, 396.844, 652.839)" fill="#e4f5fb"/>
      <path id="Path_1495" data-name="Path 1495" d="M811.6,1009.317l4.247-.281a4.11,4.11,0,0,0,3.829-4.371L817.393,970.1a4.109,4.109,0,0,0-4.371-3.828l-4.294.284.653,9.708a9.512,9.512,0,0,0,4.34,1.85l1.264,19.092a9.493,9.493,0,0,0-4.034,2.382Z" transform="translate(-338.317 -321.112)" fill="#5eb6b2" fill-rule="evenodd"/>
      <path id="Path_1496" data-name="Path 1496" d="M661.472,1007.252l-30.824,2.039a9.561,9.561,0,0,0-7.82-7.168l-1.263-19.09a9.56,9.56,0,0,0,6.806-8.135l28.907-1.913v0l1.88-.127,1.88-.125v0l28.9-1.976a9.561,9.561,0,0,0,7.834,7.151l1.306,19.087a9.56,9.56,0,0,0-6.788,8.151Zm-44.6-31.679,2.288,34.566a4.111,4.111,0,0,0,4.372,3.828l36.346-2.406v0l1.88-.128,1.88-.125v0l36.341-2.486a4.11,4.11,0,0,0,3.819-4.38l-2.363-34.56a4.109,4.109,0,0,0-4.38-3.818l-38.172,2.611L620.7,971.2A4.111,4.111,0,0,0,616.868,975.573Z" transform="translate(-222.376 -320.986)" fill="#1b70af" fill-rule="evenodd"/>
      <path id="Path_1497" data-name="Path 1497" d="M709.094,992.682h-.026c-.065,0-.129.009-.193.015h-.026a13.069,13.069,0,0,0,1.743,26.075h.055l.129-.007h.045l.048,0h.017l.194-.016h.046a13.069,13.069,0,0,0-1.776-26.072h-.018c-.079,0-.158.007-.237.013" transform="translate(-270.734 -337.057)" fill="#1b70af" fill-rule="evenodd"/>
      <path id="Path_1498" data-name="Path 1498" d="M669.393,1017.455a4.673,4.673,0,1,0,4.972,4.355,4.674,4.674,0,0,0-4.972-4.355" transform="translate(-251.484 -352.039)" fill="#1b70af" fill-rule="evenodd"/>
      <path id="Path_1499" data-name="Path 1499" d="M648.738,1024.126a2.666,2.666,0,1,0,2.837,2.485,2.666,2.666,0,0,0-2.837-2.485" transform="translate(-240.135 -356.073)" fill="#1b70af" fill-rule="evenodd"/>
      <path id="Path_1500" data-name="Path 1500" d="M776.353,1010.258a4.673,4.673,0,1,1-4.344,4.981,4.673,4.673,0,0,1,4.344-4.981" transform="translate(-316.122 -347.69)" fill="#1b70af" fill-rule="evenodd"/>
      <path id="Path_1501" data-name="Path 1501" d="M803.4,1013.718a2.666,2.666,0,1,1-2.479,2.843,2.666,2.666,0,0,1,2.479-2.843" transform="translate(-333.598 -349.783)" fill="#1b70af" fill-rule="evenodd"/>
      <path id="Path_1502" data-name="Path 1502" d="M719.319,1004.571l-.593-2.45,2.67-.3-.155,2.514a4.65,4.65,0,0,1,4.534,2.646l-3.035,1.3a1.9,1.9,0,0,0-2.086-1.07q-1.24.127-1.158.926a.668.668,0,0,0,.262.473,2.9,2.9,0,0,0,1.2.294,21.783,21.783,0,0,1,3.2.523,3.479,3.479,0,0,1,1.7,1.113,3.621,3.621,0,0,1,.841,2.054,3.822,3.822,0,0,1-.923,2.991,5.658,5.658,0,0,1-3.211,1.739l.678,2.462-2.812.338.209-2.6a4.945,4.945,0,0,1-4.937-3.35l3.437-1.01a2.1,2.1,0,0,0,2.424,1.306q1.419-.144,1.341-.923a.731.731,0,0,0-.4-.605,3.4,3.4,0,0,0-1.213-.283q-3.372-.329-4.364-1.28a3.6,3.6,0,0,1-1.128-2.3,4.031,4.031,0,0,1,.7-2.746,4.642,4.642,0,0,1,2.816-1.757" transform="translate(-282.104 -342.598)" fill="#e4f5fb" fill-rule="evenodd"/>
      <path id="Path_1503" data-name="Path 1503" d="M608.569,1059.675l1.247.4,2.791-.488c.311-.14,2.342-.614,1.8.056-.379.47-1.547,1.244-1.518,1.3.374.68,4.153,1.7,4.19,1.762.525.861-1.912.353-2.33.285a15.648,15.648,0,0,1,1.522.795.845.845,0,0,1-.794.239,10.293,10.293,0,0,0-1.607-.359c-.117.084,1.547.79,1.433.86a.742.742,0,0,1-.616.1,14.274,14.274,0,0,0-1.564-.432c-.146.059,1.075.493.936.535-.108.032-.136.227-.245.213-2.92-.385-2.872-1.885-6.227-2.236-1.866-.2.338-2.738.979-3.026" transform="translate(-216.332 -377.329)" fill="#f7cccf" fill-rule="evenodd"/>
      <rect id="Rectangle_608" data-name="Rectangle 608" width="10.8" height="10.799" transform="translate(782.718 694.103)" fill="#a5dbfd"/>
      <path id="Path_1504" data-name="Path 1504" d="M809.009,830.011a6.607,6.607,0,0,1,5.849,6.543v23.7a6.6,6.6,0,0,1-6.584,6.584h-29.3a6.6,6.6,0,0,1-6.584-6.584v-23.7a6.609,6.609,0,0,1,5.518-6.5v-5.572l.006-.135a15.572,15.572,0,0,1,31.086,0v.024c.011.233.017.468.017.7,0,.186,0,.372-.011.557Zm-15.384,7.015a6.619,6.619,0,0,1,3.083,12.476v10.94h-6.166V849.5a6.619,6.619,0,0,1,3.083-12.476Zm-10.041-7.057h19.752v-4.453c.007-.146.011-.292.011-.44s0-.294-.011-.441v-.016h0a9.9,9.9,0,0,0-19.751,0v5.35Z" transform="translate(-316.36 -226.525)" fill="#3dabf9" fill-rule="evenodd"/>
      <path id="Path_1505" data-name="Path 1505" d="M804.073,830.011a6.607,6.607,0,0,1,5.849,6.543v23.7a6.6,6.6,0,0,1-6.585,6.584h-29.3a6.6,6.6,0,0,1-6.584-6.584v-23.7a6.608,6.608,0,0,1,5.518-6.5v-5.572l.007-.135a15.572,15.572,0,0,1,31.085,0v.024c.011.233.017.468.017.7q0,.278-.011.557Zm-15.384,7.015a6.619,6.619,0,0,1,3.083,12.476v10.94h-6.166V849.5a6.619,6.619,0,0,1,3.083-12.476Zm-10.041-7.057H798.4v-4.453c.007-.146.011-.292.011-.44s0-.294-.011-.441v-.016h0a9.9,9.9,0,0,0-19.751,0v5.35Z" transform="translate(-313.377 -226.525)" fill="#76c5fb" fill-rule="evenodd"/>
      <path id="Path_1506" data-name="Path 1506" d="M377.5,1224.263h668.067a1.034,1.034,0,0,1,1.031,1.031h0a1.034,1.034,0,0,1-1.031,1.031H377.5a1.033,1.033,0,0,1-1.031-1.031h0a1.034,1.034,0,0,1,1.031-1.031" transform="translate(-77.114 -477.013)" fill="#1b70af" fill-rule="evenodd"/>
      <g id="Group_551" data-name="Group 551" transform="translate(748.509 671.362)">
        <rect id="Rectangle_609" data-name="Rectangle 609" width="170.846" height="18.289" transform="translate(44.846 41.807)" fill="#fda600"/>
        <rect id="Rectangle_610" data-name="Rectangle 610" width="21.649" height="18.289" transform="translate(44.846 41.807)" fill="#fda600"/>
        <rect id="Rectangle_611" data-name="Rectangle 611" width="21.91" height="18.289" transform="translate(66.495 41.807)" fill="#ffd115"/>
        <rect id="Rectangle_612" data-name="Rectangle 612" width="78.772" height="18.289" transform="translate(88.405 41.807)" fill="#fca700"/>
        <rect id="Rectangle_613" data-name="Rectangle 613" width="33.126" height="18.289" transform="translate(167.176 41.807)" fill="#ec830e"/>
        <rect id="Rectangle_614" data-name="Rectangle 614" width="154.414" height="1.743" transform="translate(53.188 60.095)" fill="#bc4124"/>
        <rect id="Rectangle_615" data-name="Rectangle 615" width="170.845" height="18.289" transform="translate(44.846 1.742)" fill="#fda600"/>
        <rect id="Rectangle_616" data-name="Rectangle 616" width="21.65" height="18.289" transform="translate(44.846 1.742)" fill="#fda600"/>
        <rect id="Rectangle_617" data-name="Rectangle 617" width="21.91" height="18.289" transform="translate(66.495 1.742)" fill="#ffd115"/>
        <rect id="Rectangle_618" data-name="Rectangle 618" width="78.772" height="18.289" transform="translate(88.405 1.742)" fill="#fca700"/>
        <rect id="Rectangle_619" data-name="Rectangle 619" width="33.126" height="18.289" transform="translate(167.176 1.742)" fill="#ec830e"/>
        <rect id="Rectangle_620" data-name="Rectangle 620" width="154.414" height="1.742" transform="translate(53.187 20.032)" fill="#bc4124"/>
        <rect id="Rectangle_621" data-name="Rectangle 621" width="154.414" height="1.742" transform="translate(61.808)" fill="#bc4124"/>
        <rect id="Rectangle_622" data-name="Rectangle 622" width="21.65" height="18.289" transform="translate(53.262 21.774)" fill="#fda600"/>
        <rect id="Rectangle_623" data-name="Rectangle 623" width="21.91" height="18.289" transform="translate(74.912 21.774)" fill="#ffd115"/>
        <rect id="Rectangle_624" data-name="Rectangle 624" width="78.772" height="18.289" transform="translate(96.821 21.774)" fill="#fca700"/>
        <rect id="Rectangle_625" data-name="Rectangle 625" width="154.414" height="1.742" transform="translate(61.604 40.063)" fill="#bc4124"/>
        <rect id="Rectangle_630" data-name="Rectangle 630" width="170.845" height="18.288" transform="translate(53.262 61.839)" fill="#fda600"/>
        <rect id="Rectangle_631" data-name="Rectangle 631" width="21.65" height="18.288" transform="translate(53.262 61.839)" fill="#fda600"/>
        <rect id="Rectangle_632" data-name="Rectangle 632" width="21.91" height="18.288" transform="translate(74.912 61.839)" fill="#ffd115"/>
        <rect id="Rectangle_633" data-name="Rectangle 633" width="78.772" height="18.288" transform="translate(96.821 61.839)" fill="#fca700"/>
        <rect id="Rectangle_634" data-name="Rectangle 634" width="154.414" height="1.743" transform="translate(61.604 80.127)" fill="#bc4124"/>
        <g id="Group_544" data-name="Group 544" transform="translate(0 0)">
          <g id="Group_543" data-name="Group 543" clip-path="url(#clip-path-3)">
            <rect id="Rectangle_641" data-name="Rectangle 641" width="139.36" height="40.968" transform="translate(0 0)" fill="url(#linear-gradient-4)"/>
          </g>
        </g>
        <path id="Path_1508" data-name="Path 1508" d="M1609.787,949.437l39.9,0c-7.722,0-14.04,9.217-14.04,20.483h0c0,11.266,6.318,20.483,14.04,20.483h-39.9c-7.72,0-14.039-9.217-14.039-20.484h0c0-11.265,6.317-20.482,14.039-20.482" transform="translate(-1563.42 -949.437)" fill="#e06d4d" fill-rule="evenodd"/>
        <path id="Path_1509" data-name="Path 1509" d="M1788.7,992.228h105.273c-4.364-7.334-6.069-17.754,0-28.484H1788.7c-3.524,0-6.415,6.417-6.415,14.241s2.89,14.243,6.416,14.243" transform="translate(-1668.566 -957.501)" fill="#edeeee" fill-rule="evenodd"/>
        <path id="Path_1510" data-name="Path 1510" d="M1890.037,978.535a28.81,28.81,0,0,1,3.934-14.791H1788.7c-3.524,0-6.415,6.417-6.415,14.24,0,.186,0,.369.005.552Z" transform="translate(-1668.566 -957.501)" fill="#e0e0df" fill-rule="evenodd"/>
        <path id="Path_1511" data-name="Path 1511" d="M1891.6,990.4H1782.69c-5.074,0-10.44-9.339-10.44-20.607s5.366-20.36,10.44-20.36H1891.6l-.047,6.137-108.515.106c-3.524,0-6.414,6.417-6.414,14.241s2.889,14.243,6.414,14.243l108.515-.107Z" transform="translate(-1662.911 -949.437)" fill="#e06d4d" fill-rule="evenodd"/>
        <g id="Group_546" data-name="Group 546" transform="translate(101.859 40.968)">
          <g id="Group_545" data-name="Group 545" clip-path="url(#clip-path-4)">
            <rect id="Rectangle_642" data-name="Rectangle 642" width="145.712" height="40.969" transform="translate(0 0)" fill="url(#linear-gradient-5)"/>
          </g>
        </g>
        <path id="Path_1513" data-name="Path 1513" d="M1924.051,1043.331l-41.721,0c8.074,0,14.678,9.218,14.678,20.484h0c0,11.267-6.6,20.484-14.678,20.484l41.721,0c8.073,0,14.68-9.217,14.68-20.482h0c0-11.266-6.606-20.484-14.68-20.484" transform="translate(-1724.96 -1002.363)" fill="#1b70af" fill-rule="evenodd"/>
        <path id="Path_1514" data-name="Path 1514" d="M1658.984,1086.122h-110.07c4.564-7.334,6.345-17.754,0-28.484h110.071c3.685,0,6.707,6.418,6.707,14.242s-3.021,14.242-6.708,14.242" transform="translate(-1537.021 -1010.428)" fill="#edeeee" fill-rule="evenodd"/>
        <path id="Path_1515" data-name="Path 1515" d="M1553.025,1072.431a27.84,27.84,0,0,0-4.114-14.792h110.072c3.685,0,6.707,6.418,6.707,14.241,0,.184,0,.368-.005.551Z" transform="translate(-1537.019 -1010.428)" fill="#e0e0df" fill-rule="evenodd"/>
        <path id="Path_1516" data-name="Path 1516" d="M1541.033,1084.3h113.878c5.305,0,10.916-9.339,10.916-20.606s-5.611-20.361-10.916-20.361H1541.033l.05,6.137,113.46.106c3.685,0,6.706,6.418,6.706,14.242s-3.02,14.242-6.706,14.242l-113.46-.106Z" transform="translate(-1532.579 -1002.363)" fill="#1b70af" fill-rule="evenodd"/>
        <g id="Group_548" data-name="Group 548" transform="translate(100.532 53.462)">
          <g id="Group_547" data-name="Group 547" clip-path="url(#clip-path-5)">
            <rect id="Rectangle_643" data-name="Rectangle 643" width="18.906" height="19.18" transform="translate(0 0)" fill="url(#linear-gradient-6)"/>
          </g>
        </g>
      </g>
      <g id="Group_552" data-name="Group 552" transform="translate(860.762 577.363)">
        <path id="Path_1523" data-name="Path 1523" d="M1851.056,754.527c1.994,14.547-7.782,19.036,1.79,32.491,0,0,5.863-6.454,8.373-6.909s2.845-8.35,2.845-8.756-2.235-16.142-2.235-16.142Z" transform="translate(-1818.184 -745.571)" fill-rule="evenodd"/>
        <path id="Path_1524" data-name="Path 1524" d="M1822.646,954.615l-13.569,4.068a10.437,10.437,0,0,0-1.9,3.42c-.378,1.605-1.057,2.312-2.059,2.377-1.838.12-2.621-11.778-2.9-13.655l15.46-4.347Z" transform="translate(-1792.053 -853.769)" fill="#f4b1b1" fill-rule="evenodd"/>
        <path id="Path_1525" data-name="Path 1525" d="M1852.722,801.221h22.812c2.848,0,9.858,5.391,11.089,12.42h0c2.319,11.308,1.288,36.194-6.724,45.067l-9.078-.118-27.818-6.9V804.739a15.147,15.147,0,0,1,9.718-3.518" transform="translate(-1815.047 -771.892)" fill="#00a0e8" fill-rule="evenodd"/>
        <path id="Path_1526" data-name="Path 1526" d="M1917.56,801.392c11.263,1.106,12.312,15.259,12.167,24.1h-12.161Z" transform="translate(-1857.072 -771.988)" fill="#00a0e8" fill-rule="evenodd"/>
        <path id="Path_1527" data-name="Path 1527" d="M1861.447,800.034c-2.587,4.416.234,7.554,2.778,8.972,3.584-2.327,6.806-4.595,6.806-8.972,0,0,3.525-1.269,4.327.693-7.448,19.314-5.294,43.8-5.294,43.8-5.172-.16-18.963-2.465-19.073-2.056-.559-4.708-.488-35.247,8.45-42.354Z" transform="translate(-1819.438 -770.995)" fill="#fff" fill-rule="evenodd"/>
        <path id="Path_1528" data-name="Path 1528" d="M1882.851,856.7l11.062-.086c.009,6.683-10.875,22.106-23.782,22.106h-16.107s3.425-4.389,7.937-4.755,4.69.255,4.69.255c2.494.084,13.963-6.585,16.2-17.52" transform="translate(-1821.258 -803.117)" fill="#f4b1b1" fill-rule="evenodd"/>
        <path id="Path_1529" data-name="Path 1529" d="M1790.156,907.28h48.2a8.64,8.64,0,0,1,1.6.15h0c12.994,0,13.235,8.056,14.208,17.164h-64.012a8.657,8.657,0,0,1,0-17.315" transform="translate(-1780.377 -831.675)" fill="#1d263b" fill-rule="evenodd"/>
        <path id="Path_1530" data-name="Path 1530" d="M1786.552,908.062c1.937-.441,4.074-1.126,6.365-.828,7.142.928,49.633,13.779,49.633,13.779l-7.493,8.692c-8.755-.551-43.873,2.555-50.56-2.038-6.966-4.783-8.567-17.185,2.055-19.6" transform="translate(-1778.928 -831.608)" fill="#1d263b" fill-rule="evenodd"/>
        <path id="Path_1531" data-name="Path 1531" d="M1860.782,766.6c-.922,3.363,3.272,9.054,6.226,8.894L1867,776.84l-.011.015c-2.567,4.408.247,7.538,2.789,8.954h0c3.573-2.32,6.786-4.582,6.806-8.931V771.8c.249-.076.259.37.766.062a5.684,5.684,0,0,0,1.422-3.764c-.2-1.175-1.71-1.847-1.71-1.847,1.416-3.484,2.535-4.037-1.112-5.972s-11.006-1.792-11.006-1.792l-3.339,1.12c-.144,3.24.069,3.733-.825,6.995" transform="translate(-1824.994 -747.799)" fill="#f4b1b1" fill-rule="evenodd"/>
        <path id="Path_1532" data-name="Path 1532" d="M1873.356,795.861a6.084,6.084,0,0,0,.739-.018,17.31,17.31,0,0,0,6.106-1.256,6.435,6.435,0,0,1-3.338,3.572,12.742,12.742,0,0,1-3.638,1.117,7.614,7.614,0,0,1,.854-2.067l.011-.015.006-1.351Z" transform="translate(-1832.081 -768.152)" fill="#ed8d8f" fill-rule="evenodd"/>
        <path id="Path_1533" data-name="Path 1533" d="M1828.053,808.833c-6.2,5.527-9.8,13.159-12,21.166,4.06-.265,8.306-.247,12.328-.377Z" transform="translate(-1799.854 -776.182)" fill="#00a0e8" fill-rule="evenodd"/>
        <path id="Path_1534" data-name="Path 1534" d="M1820.86,843.715h-34.88c-1.345,0-2.742,1.134-2.446,2.447l5.213,23.052c.3,1.313,1.1,2.447,2.445,2.447h34.881c1.345,0,2.742-1.134,2.446-2.447l-5.211-23.052c-.3-1.312-1.1-2.447-2.446-2.447" transform="translate(-1781.501 -795.845)" fill="#e8f5fc" fill-rule="evenodd"/>
        <path id="Path_1535" data-name="Path 1535" d="M1817.276,843.715H1782.4c-1.345,0-2.742,1.134-2.447,2.447l5.213,23.052c.3,1.313,1.1,2.447,2.446,2.447h34.881c1.345,0,2.742-1.134,2.445-2.447l-5.213-23.052c-.3-1.312-1.1-2.447-2.446-2.447" transform="translate(-1779.481 -795.845)" fill="#94bbe3" fill-rule="evenodd"/>
        <path id="Path_1536" data-name="Path 1536" d="M1828.171,870.384a2.447,2.447,0,1,0,2.645,1.678,2.235,2.235,0,0,0-2.645-1.678" transform="translate(-1805.947 -810.832)" fill="#fff" fill-rule="evenodd"/>
        <path id="Path_1537" data-name="Path 1537" d="M1901.733,902.529H1884.02v2.284h18.855V903.67a1.145,1.145,0,0,0-1.142-1.141" transform="translate(-1838.166 -828.997)" fill="#e8f5fc" fill-rule="evenodd"/>
        <path id="Path_1538" data-name="Path 1538" d="M1868,908.371c-7.195.345-44.263,14.4-44.263,14.4l3.917,13.365c5.468-.666,44.235-5.8,47.176-7.486,12.463-7.144,3.6-21.221-6.83-20.284" transform="translate(-1804.188 -832.265)" fill="#1d263b" fill-rule="evenodd"/>
        <path id="Path_1539" data-name="Path 1539" d="M1865.68,747.041s-6.4,1.47-11.275.293c-6.152-1.483-3.709-8.325.2-11.09,5.878-4.154,16.267-2.484,19.62,4.567,4.316,9.084,4.611,12.9,13.853,18.04,3.752,2.086,7.17,4.352,7.63,10.669.055.751-1.373-.013-3.719-.615,2.731,3.5.272,9.754-.31,10.482-.923-16.039-17.369-15.651-20.8-16.056-.158-1.943-.911-3.22-.918-4.433a4.1,4.1,0,0,0,1.745-3.262c-.12-1.99-.383-1.424-.61-1.377a15.527,15.527,0,0,0-1.53.806c-.462-2.585-.358-7.736-3.885-8.023" transform="translate(-1819.366 -734.001)" fill-rule="evenodd"/>
      </g>
    </g>
  </g>
</svg>
