<svg width="351" height="270" viewBox="0 0 351 270" fill="none" xmlns="http://www.w3.org/2000/svg">
<path d="M149.92 104.357C205.657 73.4684 319.458 -42.6976 348.463 72.36C369.292 154.995 256.636 210.473 202.017 228.587C132.157 251.754 28.1748 225.982 2.82819 136.503C-7.33264 100.662 17.2566 86.5205 49.2539 96.321C86.8028 107.812 108.861 127.118 149.92 104.357Z" fill="#F2F2F7"/>
<path d="M77.7537 60.1521C77.7555 61.0835 78.0333 61.9934 78.5521 62.7669C79.0708 63.5403 79.8073 64.1427 80.6682 64.4979C81.5292 64.853 82.4761 64.945 83.3893 64.7622C84.3025 64.5793 85.1411 64.1299 85.799 63.4707C86.4569 62.8115 86.9047 61.9721 87.0857 61.0585C87.2667 60.145 87.1729 59.1982 86.8161 58.338C86.4592 57.4777 85.8554 56.7425 85.0809 56.2253C84.3064 55.708 83.396 55.4319 82.4646 55.4319C81.8452 55.4319 81.2318 55.5541 80.6597 55.7914C80.0875 56.0288 79.5678 56.3766 79.1302 56.815C78.6926 57.2534 78.3458 57.7739 78.1096 58.3465C77.8734 58.9191 77.7525 59.5327 77.7537 60.1521Z" fill="#263238"/>
<path d="M80.9868 64.4197C80.985 65.2901 81.2415 66.1414 81.7239 66.8659C82.2064 67.5904 82.893 68.1554 83.6968 68.4893C84.5006 68.8232 85.3854 68.9111 86.2392 68.7417C87.0929 68.5724 87.8772 68.1534 88.4927 67.538C89.1082 66.9225 89.5271 66.1382 89.6965 65.2844C89.8658 64.4307 89.778 63.5458 89.444 62.742C89.1101 61.9382 88.5451 61.2516 87.8207 60.7692C87.0962 60.2868 86.2448 60.0302 85.3744 60.0321C84.2115 60.0345 83.0969 60.4975 82.2746 61.3198C81.4523 62.1422 80.9892 63.2568 80.9868 64.4197Z" fill="#263238"/>
<path d="M56.7459 233.916L61.1058 238.812L73.0125 229.343L68.6525 224.448L56.7459 233.916Z" fill="#7F3E3B"/>
<path d="M63.3757 237.966L58.48 232.424C58.398 232.331 58.2837 232.272 58.1602 232.26C58.0368 232.248 57.9134 232.283 57.8149 232.359L53.1964 235.971C52.9674 236.175 52.8283 236.461 52.8092 236.767C52.7902 237.073 52.8928 237.375 53.0948 237.606C54.8313 239.453 55.7551 240.312 57.9165 242.723C59.2375 244.219 62.646 247.563 64.4841 249.623C66.3223 251.683 68.2898 249.808 67.6986 248.773C65.0476 244.155 63.9484 241.384 63.8006 239.037C63.7768 238.644 63.628 238.269 63.3757 237.966Z" fill="#263238"/>
<path d="M104.784 140.012C104.784 140.012 114.284 177.899 114.663 191.89C115.088 207.251 67.5759 236.163 67.5759 236.163L59.9958 229.212C59.9958 229.212 88.922 206.48 95.1541 192.269C92.6705 175.881 81.4435 138.538 81.4435 138.538L104.784 140.012Z" fill="#263238"/>
<path opacity="0.3" d="M96.2992 163.125C98.6448 171.904 98.2309 183.484 96.3124 192.173C93.4727 179.261 88.7557 161.733 85.0445 148.379C88.1586 148.294 93.3626 152.118 96.2992 163.125Z" fill="black"/>
<path d="M102.288 90.2744C102.472 91.0041 102.62 91.5491 102.786 92.168C102.953 92.7869 103.147 93.3596 103.331 93.9415C103.713 95.1177 104.12 96.2816 104.551 97.4331C105.418 99.7528 106.415 102.022 107.534 104.232C109.81 108.892 112.886 113.116 116.624 116.711C117.651 117.643 118.744 118.502 119.893 119.279C120.189 119.473 120.66 119.732 121.03 119.953C121.399 120.175 121.833 120.323 122.24 120.507C122.646 120.692 123.053 120.794 123.459 120.923L124.66 121.2C127.493 121.663 130.391 121.525 133.167 120.794C135.632 120.2 138.028 119.352 140.317 118.263C141.434 117.746 142.515 117.173 143.577 116.572C144.64 115.972 145.656 115.353 146.727 114.614L144.418 110.263C143.439 110.578 142.34 110.938 141.296 111.243C140.252 111.547 139.162 111.815 138.109 112.083C136.064 112.597 133.983 112.955 131.883 113.155C130.12 113.36 128.335 113.235 126.618 112.785L126.147 112.6C126.018 112.527 125.87 112.471 125.741 112.397L125.408 112.185C125.297 112.092 125.251 112.074 125.075 111.935C124.354 111.367 123.672 110.75 123.034 110.088C120.311 107.046 118.083 103.595 116.43 99.8625C115.506 97.9504 114.702 95.946 113.926 93.9323C113.548 92.9254 113.187 91.9001 112.855 90.8748L112.374 89.3414C112.217 88.8518 112.051 88.2884 111.94 87.9004L102.288 90.2744Z" fill="#7F3E3B"/>
<path d="M121.002 104.324L110.01 111.141C110.01 111.141 109.65 110.67 109.086 109.857C108.661 109.266 108.107 108.471 107.47 107.548C103.877 102.32 98.7777 92.8884 99.101 88.51C99.5905 81.9979 106.435 81.6191 113.455 88.9349C116.485 92.0848 117.778 97.0082 119.192 100.112C119.663 101.128 120.051 102.024 120.356 102.717L121.002 104.324Z" fill="#E9C632"/>
<path d="M74.7159 263.571H81.2742L82.124 248.385H75.5657L74.7159 263.571Z" fill="#7F3E3B"/>
<path d="M81.1018 260.915H73.7122C73.6515 260.913 73.5909 260.922 73.5339 260.943C73.477 260.964 73.4247 260.996 73.3801 261.038C73.3354 261.079 73.2994 261.128 73.2739 261.183C73.2485 261.239 73.2342 261.298 73.2318 261.359L72.8716 267.197C72.8715 267.502 72.9916 267.795 73.2059 268.013C73.4202 268.231 73.7115 268.356 74.017 268.361C76.5849 268.361 77.8134 268.167 81.0557 268.167C83.0417 268.167 88.8149 268.37 91.5675 268.37C94.3202 268.37 94.237 265.645 93.0731 265.405C87.8449 264.296 84.067 262.772 82.2103 261.322C81.8952 261.069 81.5058 260.926 81.1018 260.915Z" fill="#263238"/>
<path d="M92.3851 138.692C92.3851 138.692 95.2413 175.891 92.9468 189.905C90.4715 205.257 83.4262 255.688 83.4262 255.688H71.0494C71.0494 255.688 72.3442 205.708 72.8678 190.425C73.4296 173.839 69.1072 137.236 69.1072 137.236L92.3851 138.692Z" fill="#263238"/>
<path opacity="0.3" d="M98.9439 89.2952C101.41 87.9558 102.768 92.0663 107.091 95.8628C109.012 97.5439 112.679 107.742 112.125 109.866L110.01 111.178C110.01 111.178 98.3342 95.7612 98.9439 89.2952Z" fill="black"/>
<path d="M143.134 110.947L148.455 105.58L151.679 112.046C151.679 112.046 145.878 116.286 144.224 114.817L143.134 110.947Z" fill="#7F3E3B"/>
<path d="M155.207 105.968L156.27 111.076L151.679 112.083L148.455 105.58L155.207 105.968Z" fill="#7F3E3B"/>
<path d="M104.846 141.023L69.9022 138.021C69.9022 134.88 71.5187 124.784 72.0914 111.806C72.5851 102.194 72.242 92.5573 71.0661 83.0047C70.9737 82.2842 70.8721 81.573 70.7612 80.8525C70.7612 80.8525 72.5625 80.6493 75.1396 80.4922C77.2734 80.3629 79.9429 80.2798 82.5293 80.3721C87.5007 80.5187 92.4598 80.9474 97.3826 81.6561C99.6457 82.0625 101.844 82.6352 103.59 83.1248C105.825 83.7806 107.137 84.2887 107.137 84.2887C107.137 84.2887 114.065 104.814 104.846 141.023Z" fill="#E9C632"/>
<path opacity="0.3" d="M72.0918 111.834C72.581 102.219 72.238 92.5792 71.0665 83.0232C73.422 83.0232 77.3939 83.5959 77.7357 87.4293C78.096 91.5398 76.3778 100.999 72.0918 111.834Z" fill="black"/>
<path d="M68.3874 84.8799C67.6022 85.8867 66.9372 86.7735 66.2721 87.7434C65.6071 88.7133 64.9697 89.6555 64.3323 90.6254C63.0761 92.5744 61.8845 94.5696 60.776 96.6203C58.4512 100.788 56.5926 105.199 55.2338 109.774L55.1045 110.208L55.0398 110.43L54.9474 110.79C54.832 111.279 54.7517 111.776 54.7072 112.277C54.6452 113.111 54.6637 113.95 54.7627 114.78C54.9361 116.153 55.2456 117.505 55.6864 118.817C56.4839 121.122 57.479 123.353 58.6607 125.486C60.899 129.53 63.5057 133.358 66.4476 136.922L70.5766 134.234C68.7292 130.326 66.9649 126.29 65.5147 122.346C64.7905 120.463 64.204 118.531 63.7596 116.563C63.5719 115.744 63.4667 114.909 63.4456 114.069C63.439 113.796 63.4638 113.524 63.5195 113.256C63.5195 113.173 63.5656 113.109 63.5841 113.099L63.6488 112.924L63.7873 112.573C64.5144 110.683 65.3408 108.833 66.2629 107.03C67.1866 105.183 68.2304 103.336 69.3019 101.534C70.3734 99.7332 71.5188 97.9319 72.6827 96.1492C73.8466 94.3664 75.0936 92.5744 76.2297 90.9671L68.3874 84.8799Z" fill="#7F3E3B"/>
<path d="M78.419 93.5166C76.3957 97.9062 74.1196 102.175 71.602 106.301C71.057 107.225 70.549 108.056 70.1333 108.721C69.4128 109.894 68.9602 110.568 68.9602 110.568L56.3515 102.098L56.952 100.648C57.2383 99.9641 57.6171 99.0681 58.0789 98.0336C60.85 91.9371 66.2907 81.1112 70.7615 80.8433C77.4491 80.483 81.7721 85.8221 78.419 93.5166Z" fill="#E9C632"/>
<path d="M84.2939 63.7639L87.9887 67.4033L93.0137 72.3636C92.7918 73.0695 92.6129 73.7883 92.478 74.5159C91.933 77.4256 92.478 80.1597 96.6993 81.5545C96.6993 81.5545 101.974 86.2932 94.3624 86.0068C92.0224 85.9599 89.7166 85.4369 87.5854 84.4697C85.4541 83.5026 83.5422 82.1116 81.9661 80.3814C85.4762 77.4717 84.9867 68.6411 84.2939 63.7639Z" fill="#7F3E3B"/>
<path opacity="0.2" d="M93.0139 72.3636C92.792 73.0696 92.6131 73.7883 92.4782 74.5159C90.4922 73.934 87.9797 71.56 87.8596 69.4724C87.8199 68.7807 87.857 68.0868 87.9705 67.4033L93.0139 72.3636Z" fill="black"/>
<path d="M93.2061 53.8767C89.5519 50.2225 89.5518 44.2979 93.2061 40.6437C96.8603 36.9895 102.785 36.9895 106.439 40.6437C110.093 44.2979 110.093 50.2225 106.439 53.8767C102.785 57.531 96.8603 57.531 93.2061 53.8767Z" fill="#263238"/>
<path d="M92.053 53.5846C88.3697 53.5846 85.3838 50.5987 85.3838 46.9154C85.3838 43.2321 88.3697 40.2462 92.053 40.2462C95.7363 40.2462 98.7222 43.2321 98.7222 46.9154C98.7222 50.5987 95.7363 53.5846 92.053 53.5846Z" fill="#263238"/>
<path d="M80.7282 49.2246C80.7282 50.255 81.0338 51.2623 81.6062 52.119C82.1787 52.9757 82.9923 53.6435 83.9443 54.0378C84.8962 54.4321 85.9437 54.5353 86.9543 54.3343C87.9649 54.1332 88.8932 53.6371 89.6218 52.9085C90.3504 52.1799 90.8466 51.2516 91.0476 50.241C91.2486 49.2304 91.1454 48.1829 90.7511 47.2309C90.3568 46.279 89.6891 45.4653 88.8323 44.8929C87.9756 44.3204 86.9683 44.0149 85.938 44.0149C84.5562 44.0149 83.2311 44.5638 82.2541 45.5408C81.2771 46.5178 80.7282 47.8429 80.7282 49.2246Z" fill="#263238"/>
<path d="M94.612 55.9031C94.6138 56.9331 94.921 57.9394 95.4945 58.7949C96.0681 59.6504 96.8824 60.3167 97.8345 60.7096C98.7866 61.1025 99.8338 61.2044 100.844 61.0023C101.854 60.8003 102.781 60.3034 103.509 59.5744C104.237 58.8454 104.732 57.9171 104.932 56.9068C105.132 55.8965 105.029 54.8494 104.634 53.898C104.239 52.9466 103.572 52.1335 102.715 51.5615C101.859 50.9894 100.852 50.6841 99.8218 50.6841C99.1368 50.6841 98.4586 50.8191 97.8259 51.0815C97.1932 51.3439 96.6185 51.7285 96.1346 52.2132C95.6508 52.698 95.2672 53.2734 95.0059 53.9065C94.7447 54.5397 94.6108 55.2181 94.612 55.9031Z" fill="#263238"/>
<path d="M81.9661 59.5148C79.2011 59.5148 76.9596 57.2733 76.9596 54.5083C76.9596 51.7433 79.2011 49.5018 81.9661 49.5018C84.7311 49.5018 86.9727 51.7433 86.9727 54.5083C86.9727 57.2733 84.7311 59.5148 81.9661 59.5148Z" fill="#263238"/>
<path d="M83.2502 56.7344C84.0815 63.2004 84.2385 67.0338 87.7486 70.2483C88.875 71.3089 90.2702 72.0412 91.7829 72.3658C93.2957 72.6904 94.8684 72.5949 96.3308 72.0897C97.7932 71.5844 99.0894 70.6888 100.079 69.4996C101.069 68.3104 101.715 66.8731 101.946 65.3434C102.953 59.4686 101.41 49.8712 94.8797 47.4973C93.4797 46.9468 91.9595 46.7741 90.4717 46.9964C88.9838 47.2187 87.5806 47.8282 86.4026 48.7639C85.2246 49.6995 84.3132 50.9284 83.7599 52.3274C83.2067 53.7263 83.0309 55.2461 83.2502 56.7344Z" fill="#7F3E3B"/>
<path d="M83.6011 61.4269C81.1779 61.4269 79.2135 59.4625 79.2135 57.0392C79.2135 54.616 81.1779 52.6516 83.6011 52.6516C86.0244 52.6516 87.9888 54.616 87.9888 57.0392C87.9888 59.4625 86.0244 61.4269 83.6011 61.4269Z" fill="#263238"/>
<path d="M91.1941 54.8501C90.3209 55.3953 89.3487 55.7632 88.3333 55.9325C87.3178 56.1018 86.279 56.0693 85.2761 55.8368C84.2732 55.6043 83.326 55.1764 82.4886 54.5775C81.6512 53.9787 80.9401 53.2207 80.3959 52.3468L93.6788 44.0334C94.2266 44.9066 94.5969 45.8792 94.7685 46.8956C94.9401 47.912 94.9096 48.9522 94.6789 49.9568C94.4481 50.9615 94.0215 51.9107 93.4236 52.7503C92.8256 53.59 92.068 54.3035 91.1941 54.8501Z" fill="#263238"/>
<path d="M100.412 51.8202C98.5004 52.4157 96.4301 52.2278 94.6565 51.2977C92.8828 50.3676 91.551 48.7714 90.9537 46.8599L105.364 42.3614C105.66 43.3075 105.767 44.3028 105.678 45.2903C105.59 46.2779 105.308 47.2383 104.848 48.1167C104.388 48.9951 103.76 49.7743 102.999 50.4098C102.238 51.0452 101.359 51.5245 100.412 51.8202Z" fill="#263238"/>
<path d="M81.2088 63.2465C82.1298 64.5837 83.4837 65.5624 85.0422 66.0176C87.0097 66.5257 87.6286 64.7152 86.7603 62.8308C85.9844 61.1404 83.9892 58.8312 82.1879 59.136C80.3867 59.4408 80.0449 61.5838 81.2088 63.2465Z" fill="#7F3E3B"/>
<path d="M68.988 132.636L75.5925 132.063L71.6021 139.305C71.6021 139.305 65.6719 138.76 66.2076 135.721L68.988 132.636Z" fill="#7F3E3B"/>
<path d="M80.1184 136.266L76.5436 142.085L71.611 139.305L75.5922 132.063L80.1184 136.266Z" fill="#7F3E3B"/>
<path d="M192.683 73.7861C198.844 85.0462 195.925 100.324 186.66 106.116C176.952 112.203 158.357 100.574 153.028 95.1608C161.48 95.3455 163.521 88.002 163.872 80.834C164.278 72.5853 168.232 64.5675 173.442 67.3109C181.561 61.5839 188.554 66.2579 192.683 73.7861Z" fill="#263238"/>
<path d="M192.636 110.633C193.822 112.262 195.096 113.825 196.451 115.316C197.797 116.811 199.231 118.224 200.746 119.547C202.3 120.923 203.972 122.16 205.744 123.242C206.677 123.814 207.653 124.314 208.663 124.738C209.733 125.214 210.855 125.564 212.006 125.782C213.251 126.043 214.531 126.099 215.794 125.948C217.046 125.788 218.263 125.423 219.396 124.867C221.35 123.883 223.134 122.592 224.68 121.043C227.502 118.218 229.89 114.99 231.765 111.464L228.92 109.617C226.577 112.324 223.978 114.798 221.16 117.007C219.902 117.994 218.508 118.797 217.022 119.39C216.432 119.619 215.808 119.75 215.175 119.778C214.551 119.811 213.926 119.736 213.327 119.556C211.873 119.143 210.499 118.487 209.263 117.616C207.852 116.674 206.517 115.62 205.273 114.466C203.989 113.293 202.779 112 201.578 110.688C200.377 109.377 199.213 107.917 198.206 106.633L192.636 110.633Z" fill="#FFC3BD"/>
<path d="M191.824 103.059C197.976 102.902 199.777 106.753 199.777 106.753L193.514 118.078C191.573 116.236 190.082 113.974 189.154 111.464C188.027 107.714 187.676 103.151 191.824 103.059Z" fill="#407BFF"/>
<path d="M228.55 110.162L230.795 104.749L234.785 110.633C234.785 110.633 232.458 113.025 229.687 112.711L228.55 110.162Z" fill="#FFC3BD"/>
<path d="M235.663 101.553L237.833 106.467L234.785 110.633L230.795 104.749L235.663 101.553Z" fill="#FFC3BD"/>
<path d="M171.011 259.287L177.708 259.925L179.75 244.443L173.053 243.806L171.011 259.287Z" fill="#FFC3BD"/>
<path d="M118.451 251L123.587 255.037L132.417 241.56L127.272 237.514L118.451 251Z" fill="#FFC3BD"/>
<path d="M125.537 253.908L120.586 248.079C120.504 247.977 120.387 247.908 120.258 247.886C120.128 247.863 119.995 247.89 119.884 247.959L114.785 251.09C114.661 251.178 114.556 251.29 114.478 251.42C114.4 251.549 114.35 251.694 114.331 251.845C114.311 251.995 114.324 252.148 114.367 252.293C114.41 252.438 114.483 252.573 114.582 252.688C116.346 254.693 117.297 255.57 119.477 258.129C120.817 259.709 123.551 263.385 125.398 265.565C127.246 267.745 129.472 266.082 128.89 265.011C126.294 260.226 125.999 257.353 125.962 255.035C125.96 254.62 125.809 254.22 125.537 253.908Z" fill="#263238"/>
<path d="M178.226 257.95H170.245C170.1 257.952 169.96 258.001 169.845 258.089C169.73 258.177 169.647 258.3 169.607 258.439L167.871 264.758C167.829 264.907 167.823 265.065 167.853 265.217C167.882 265.37 167.948 265.513 168.043 265.636C168.138 265.759 168.26 265.858 168.4 265.925C168.541 265.992 168.695 266.026 168.85 266.023C171.621 266.023 172.997 265.811 176.517 265.811C178.678 265.811 184.257 266.032 187.241 266.032C190.225 266.032 190.77 263.086 189.569 262.818C184.156 261.617 181.034 259.963 179.408 258.393C179.088 258.095 178.663 257.935 178.226 257.95Z" fill="#263238"/>
<path d="M196.562 103.964C196.562 103.964 199.536 105.7 186.346 143.129L159.364 137.799C161.747 126.992 162.948 120.249 161.655 96.8789C165.576 96.8527 169.493 97.1089 173.377 97.6456C177.515 98.1584 181.612 98.9672 185.635 100.066C190.807 101.581 196.562 103.964 196.562 103.964Z" fill="#407BFF"/>
<path d="M177.016 84.1964C177.099 88.2607 176.601 95.5765 173.377 97.6456C173.377 97.6456 171.631 100.195 182.244 111.843C188.544 104.065 185.635 100.066 185.635 100.066C181.422 98.1536 182.106 94.9391 183.408 92.0479L177.016 84.1964Z" fill="#FFC3BD"/>
<path opacity="0.2" d="M177.709 85.0461C177.355 87.3977 177.509 89.798 178.162 92.0848C178.614 93.6644 180.453 94.7082 182.439 95.2439C182.58 94.1374 182.892 93.0594 183.362 92.0479L177.709 85.0461Z" fill="black"/>
<path d="M170.975 79.8826C172.823 86.3486 173.469 89.1198 177.515 91.7893C183.584 95.8536 191.085 92.3528 191.195 85.5265C191.288 79.3746 188.249 69.8234 181.284 68.5302C179.768 68.2169 178.196 68.3044 176.724 68.7838C175.252 69.2633 173.931 70.1183 172.89 71.2645C171.849 72.4106 171.125 73.8083 170.789 75.3196C170.454 76.8309 170.518 78.4037 170.975 79.8826Z" fill="#FFC3BD"/>
<path d="M172.675 69.8973C169.516 72.7146 191.842 74.9222 189.828 71.4953C187.815 68.0683 178.014 65.1217 172.675 69.8973Z" fill="#263238"/>
<path d="M171.28 83.5221C177.977 85.3695 178.614 66.8953 174.836 68.17C171.058 69.4447 164.389 81.6192 171.28 83.5221Z" fill="#263238"/>
<path d="M169.747 84.9538C170.165 86.1898 171.046 87.2159 172.204 87.8173C173.756 88.5932 174.827 87.3185 174.652 85.702C174.495 84.2518 173.506 82.0903 171.88 82.0072C171.517 81.9818 171.154 82.0494 170.824 82.2035C170.494 82.3576 170.209 82.5932 169.996 82.8881C169.782 83.1829 169.647 83.5273 169.604 83.8887C169.56 84.2501 169.609 84.6167 169.747 84.9538Z" fill="#FFC3BD"/>
<path d="M187.798 139.408C187.798 139.408 191.538 186.008 189.217 201.036C186.791 216.682 180.935 252.395 180.935 252.395L168.154 253.267C168.154 253.267 170.636 211.99 170.539 200.102C170.411 183.721 167.561 138.621 167.561 138.621L187.798 139.408Z" fill="#A67C52"/>
<path opacity="0.5" d="M168.053 150.397C169.977 149.231 172.688 143.917 175.015 153.946C176.711 161.237 172.131 170.817 169.377 174.348C168.924 165.859 168.437 157.132 168.053 150.397Z" fill="#564432"/>
<path d="M181.192 138.796C181.192 138.796 168.161 181.647 159.611 200.221C152.741 215.219 128.367 249.974 128.367 249.974L120.368 246.718C120.368 246.718 135.988 209.724 140.757 199.562C156.102 166.971 150.954 146.574 160.967 137.993L181.192 138.796Z" fill="#A67C52"/>
<path d="M162.376 139.905L161.637 139.758C161.498 139.758 161.397 139.638 161.424 139.545L162.348 136.497C162.348 136.414 162.514 136.358 162.653 136.386L163.392 136.534C163.53 136.534 163.632 136.663 163.604 136.746L162.681 139.795C162.662 139.887 162.514 139.933 162.376 139.905Z" fill="#407BFF"/>
<path d="M184.974 141.168L184.244 141.02C184.096 141.02 184.004 140.9 184.032 140.807L184.955 137.759C184.955 137.667 185.122 137.621 185.269 137.648L185.999 137.796C186.147 137.796 186.248 137.916 186.221 138.009L185.297 141.057C185.26 141.14 185.122 141.195 184.974 141.168Z" fill="#407BFF"/>
<path d="M180.461 141.168L179.731 141.02C179.583 141.02 179.491 140.9 179.519 140.807L180.442 137.759C180.442 137.667 180.609 137.621 180.756 137.648L181.486 137.796C181.634 137.796 181.736 137.916 181.708 138.009L180.784 141.057C180.747 141.14 180.609 141.195 180.461 141.168Z" fill="#407BFF"/>
<path d="M160.491 99.7701C159.429 100.481 158.57 101.128 157.655 101.848C156.741 102.569 155.882 103.289 155.023 104.047C153.308 105.569 151.68 107.185 150.146 108.887C148.582 110.607 147.152 112.445 145.869 114.383C144.54 116.368 143.423 118.485 142.534 120.701L142.211 121.505L142.294 122.179C142.528 124.165 143.057 126.105 143.864 127.934C144.647 129.718 145.67 131.387 146.903 132.894C148.102 134.343 149.448 135.662 150.921 136.829C151.649 137.397 152.404 137.927 153.185 138.418C153.983 138.927 154.816 139.377 155.679 139.767L157.332 136.783C156.787 136.349 156.131 135.804 155.568 135.268C155.004 134.733 154.432 134.151 153.905 133.578C152.857 132.444 151.929 131.206 151.134 129.883C150.36 128.619 149.74 127.267 149.286 125.856C148.848 124.498 148.593 123.088 148.529 121.662L148.298 123.14C150.082 119.586 152.41 116.332 155.198 113.496C156.593 112.019 158.099 110.624 159.641 109.266C160.417 108.592 161.212 107.936 162.006 107.289C162.8 106.643 163.659 106.005 164.389 105.488L160.491 99.7701Z" fill="#FFC3BD"/>
<path d="M155.097 136.405L159.974 136.94L157.628 142.363C157.628 142.363 154.164 141.106 153.268 138.428L155.097 136.405Z" fill="#FFC3BD"/>
<path d="M164.399 138.206L162.912 142.566L157.628 142.316L159.974 136.894L164.399 138.206Z" fill="#FFC3BD"/>
<path d="M161.655 96.8789C158.81 97.156 157.295 100.158 157.295 100.158L162.995 111.243C162.995 111.243 167.207 108.204 166.689 104.518C166.144 100.703 164.907 96.5556 161.655 96.8789Z" fill="#407BFF"/>
<path d="M257.356 265.385L264.247 265.69L264.358 249.488L257.467 249.183L257.356 265.385Z" fill="#FF8B7B"/>
<path d="M264.85 262.028L257.045 262.13C256.914 262.127 256.787 262.176 256.692 262.266C256.597 262.356 256.541 262.48 256.537 262.61L256.241 268.781C256.241 268.942 256.273 269.101 256.335 269.249C256.397 269.398 256.487 269.533 256.601 269.646C256.716 269.759 256.851 269.849 257 269.91C257.149 269.971 257.309 270.001 257.47 270C260.185 269.917 261.479 269.741 264.905 269.704C267.021 269.704 272.092 269.704 275.002 269.704C277.911 269.704 277.773 266.785 276.563 266.545C271.02 265.446 268.028 263.987 266.051 262.472C265.711 262.194 265.289 262.038 264.85 262.028Z" fill="#263238"/>
<path d="M269.718 141.511C269.718 141.511 272.981 174.29 273.448 189.301C273.942 205.739 265.839 255.172 265.839 255.172L253.718 255.688C253.718 255.688 255.48 208.156 253 192.003C250.306 174.464 244.833 139.84 244.833 139.84L269.718 141.511Z" fill="#263238"/>
<path opacity="0.3" d="M253.734 157.756C256.118 167.058 255.045 181.76 253.432 191.862C251.53 178.492 249.37 163.455 247.887 153.132C250.08 152.54 252.639 153.464 253.734 157.756Z" fill="black"/>
<path d="M262.497 88.861C263.106 90.5052 263.688 91.937 264.344 93.4334C265 94.9298 265.656 96.3708 266.349 97.8303C267.753 100.731 269.258 103.594 270.967 106.393C272.651 109.261 274.524 112.013 276.574 114.633C278.712 117.464 281.194 120.018 283.964 122.235L284.259 122.466C284.567 122.704 284.91 122.895 285.275 123.029C286.58 123.52 287.938 123.855 289.321 124.027C290.66 124.165 292.01 124.165 293.349 124.027C295.794 123.725 298.169 123.004 300.369 121.893C302.354 120.881 304.214 119.641 305.911 118.198C306.733 117.496 307.509 116.757 308.257 115.99C309.02 115.202 309.735 114.369 310.4 113.496C310.832 112.94 311.056 112.251 311.034 111.547C311.013 110.844 310.747 110.17 310.283 109.641C309.818 109.112 309.184 108.761 308.489 108.649C307.794 108.537 307.082 108.67 306.475 109.026L306.142 109.22C305.505 109.598 304.673 110.097 303.925 110.504C303.177 110.91 302.373 111.316 301.597 111.686C300.115 112.396 298.568 112.966 296.979 113.386C295.62 113.758 294.211 113.914 292.804 113.847C291.678 113.778 290.58 113.463 289.589 112.924L290.901 113.727C288.999 111.907 287.299 109.888 285.83 107.705C285.035 106.559 284.269 105.371 283.53 104.139C282.781 102.92 282.052 101.673 281.359 100.389C279.964 97.8395 278.643 95.2069 277.378 92.5374C276.74 91.2072 276.122 89.8586 275.53 88.51C274.939 87.1614 274.329 85.7389 273.821 84.5196L273.775 84.418C273.091 83.0643 271.926 82.015 270.508 81.4754C269.091 80.9358 267.523 80.9448 266.112 81.5008C264.7 82.0567 263.548 83.1195 262.879 84.4809C262.21 85.8423 262.074 87.4043 262.497 88.861Z" fill="#FE9F8A"/>
<path opacity="0.3" d="M277.378 107.123C277.647 109.955 277.647 112.807 277.378 115.64L276.584 114.633C274.533 112.016 272.663 109.264 270.986 106.393C270.284 105.229 269.61 104.047 268.972 102.865C268.64 101.618 268.344 100.38 268.048 99.1235L267.799 97.895C271.041 96.7496 276.417 98.8464 277.378 107.123Z" fill="black"/>
<path d="M309.237 108.084L314.714 105.922L315.527 113.857C313.591 114.357 311.611 114.667 309.615 114.78C309.147 114.813 308.678 114.733 308.246 114.549C307.815 114.364 307.433 114.08 307.133 113.719C306.832 113.359 306.622 112.932 306.519 112.474C306.416 112.016 306.423 111.54 306.539 111.086C306.718 110.407 307.056 109.78 307.525 109.258C307.994 108.736 308.581 108.334 309.237 108.084Z" fill="#FF8B7B"/>
<path d="M320.155 107.446L318.548 113.958L315.527 113.848L314.714 105.913L320.155 107.446Z" fill="#FF8B7B"/>
<path d="M209.692 258.18L216.472 259.667L220.813 244.158L214.033 242.671L209.692 258.18Z" fill="#FF8B7B"/>
<path d="M217.482 255.839L210.175 253.124C210.115 253.098 210.051 253.085 209.986 253.084C209.921 253.084 209.856 253.097 209.796 253.122C209.736 253.147 209.681 253.183 209.635 253.23C209.589 253.276 209.553 253.331 209.529 253.392L207.016 259.045C206.902 259.349 206.913 259.685 207.046 259.981C207.179 260.277 207.424 260.508 207.728 260.624C210.286 261.548 211.561 261.825 214.775 263.026C216.752 263.756 222.165 265.991 224.862 267.007C227.56 268.023 228.557 265.289 227.449 264.615C222.664 261.585 219.754 258.786 218.452 256.662C218.23 256.287 217.888 255.997 217.482 255.839Z" fill="#263238"/>
<path d="M256.548 140.163C256.548 140.163 249.393 174.806 245.904 189.666C242.08 205.948 220.932 253.084 220.932 253.084L208.386 250.984C208.386 250.984 223.311 205.591 225.102 189.295C227.042 171.613 232.835 138.538 232.835 138.538L256.548 140.163Z" fill="#263238"/>
<path d="M272.141 85.8775C271.888 84.6867 271.319 83.5861 270.493 82.6919C269.667 81.7977 268.615 81.1431 267.448 80.797C265.781 80.2314 264.078 79.7808 262.349 79.4484C257.146 78.6754 251.903 78.2035 246.646 78.0351C243.875 77.9151 241.104 78.0351 238.804 78.1275H238.721C238.13 78.1599 237.552 78.3108 237.021 78.5714C236.49 78.832 236.016 79.1969 235.629 79.6443C235.242 80.0917 234.949 80.6124 234.768 81.1755C234.586 81.7385 234.52 82.3324 234.573 82.9216C235.494 92.3351 235.802 101.798 235.497 111.252C234.813 124.987 233.114 135.666 233.077 138.963L270.025 142.279C275.253 109.127 273.711 93.6828 272.141 85.8775Z" fill="white"/>
<path d="M274.025 86.21C273.741 84.8849 273.118 83.6559 272.218 82.6426C271.318 81.6293 270.171 80.8662 268.889 80.4276C266.454 79.816 263.987 79.3381 261.499 78.9958C263.495 89.3045 266.423 120.064 262.931 143.101C262.904 143.276 262.913 143.455 262.957 143.626C263.002 143.798 263.081 143.958 263.19 144.097C263.3 144.237 263.436 144.352 263.592 144.437C263.747 144.521 263.919 144.573 264.095 144.589L270.893 145.198C271.35 145.241 271.806 145.107 272.167 144.823C272.528 144.54 272.767 144.128 272.833 143.674C277.997 109.986 275.623 92.713 274.025 86.21Z" fill="#FE9F8A"/>
<path d="M261.573 79.3191C257.102 77.832 256.557 74.9315 257.139 71.8556C257.279 71.0831 257.47 70.3208 257.712 69.574L252.41 64.2996L248.521 60.4385C249.232 65.602 249.713 74.95 245.99 77.989C248.809 81.3257 252.448 83.8722 256.548 85.3787C262.497 82.3489 261.573 79.3191 261.573 79.3191Z" fill="#FF8B7B"/>
<path opacity="0.2" d="M257.749 69.5739C257.507 70.3208 257.316 71.083 257.176 71.8555C255.08 71.2274 252.428 68.6964 252.327 66.4888C252.29 65.7568 252.33 65.023 252.447 64.2996L257.749 69.5739Z" fill="black"/>
<path d="M258.654 51.4693C258.654 54.7392 260.114 57.3995 261.952 57.3995C263.79 57.3995 265.277 54.7669 265.287 51.497C265.296 48.227 263.827 45.576 261.989 45.5667C260.151 45.5575 258.664 48.1993 258.654 51.4693Z" fill="#263238"/>
<path d="M245.168 53.7232C246.461 60.5125 246.868 64.5398 250.775 67.7266C252.033 68.7732 253.554 69.4563 255.172 69.7022C256.79 69.9482 258.445 69.7475 259.957 69.122C261.47 68.4965 262.783 67.4698 263.754 66.1527C264.726 64.8357 265.32 63.2783 265.471 61.6486C266.155 55.3766 263.938 45.3266 256.881 43.2298C255.366 42.7368 253.749 42.6503 252.191 42.9791C250.633 43.3078 249.188 44.0402 248.002 45.1028C246.816 46.1655 245.93 47.5212 245.432 49.0341C244.935 50.547 244.844 52.164 245.168 53.7232Z" fill="#FF8B7B"/>
<path d="M259.291 47.4419C256.871 49.2062 250.609 49.8528 247.865 49.123C248.789 49.7511 248.9 51.6817 248.087 54.5545C249.022 55.8114 249.745 57.2123 250.23 58.7019L244.992 57.7782C244.992 57.7782 231.405 48.7166 241.418 44.8462C240.706 37.2256 256.336 36.7083 261.97 41.6502C267.115 46.1117 263.522 48.8736 259.291 47.4419Z" fill="#263238"/>
<path d="M244.023 59.1453C244.788 60.4349 245.981 61.4154 247.394 61.9164C249.186 62.5076 249.851 60.8634 249.168 59.0806C248.549 57.4733 246.868 55.2287 245.159 55.3857C243.45 55.5428 243.007 57.538 244.023 59.1453Z" fill="#FF8B7B"/>
<path d="M234.379 112.443C234.712 102.473 234.404 92.4918 233.455 82.5613C233.403 81.9391 233.475 81.3126 233.668 80.7188C233.861 80.125 234.172 79.576 234.581 79.1041C234.99 78.6323 235.489 78.2472 236.049 77.9715C236.61 77.6959 237.22 77.5353 237.843 77.4993H237.926C240.309 77.37 243.284 77.2776 246.24 77.3977C249.851 94.8836 249.436 117.441 247.616 141.771C247.603 141.944 247.556 142.113 247.477 142.268C247.399 142.423 247.29 142.561 247.158 142.674C247.025 142.786 246.872 142.871 246.706 142.924C246.541 142.977 246.367 142.996 246.193 142.981L233.612 141.845C233.14 141.805 232.703 141.579 232.396 141.218C232.09 140.856 231.939 140.387 231.977 139.915C232.301 135.167 233.742 125.024 234.379 112.443Z" fill="#FE9F8A"/>
<path opacity="0.3" d="M237.409 82.3489C239.459 83.485 241.224 87.8912 238.665 93.4981C237.612 95.8583 236.197 98.0398 234.471 99.9641C234.407 97.4239 234.296 94.9483 234.157 92.6298C235.469 88.7225 236.559 85.1662 237.409 82.3489Z" fill="black"/>
<path d="M234.185 79.1898L233.262 79.9011L232.421 80.5569C231.876 81.0003 231.35 81.4806 230.823 81.924C229.782 82.8354 228.763 83.7807 227.766 84.7598C225.759 86.7206 223.889 88.8161 222.168 91.0318C220.375 93.3028 218.789 95.7295 217.429 98.283C215.958 100.972 214.861 103.85 214.168 106.837C213.97 107.679 213.825 108.534 213.734 109.395L213.642 110.716V111.991C213.711 113.596 213.924 115.191 214.279 116.757C214.951 119.603 215.949 122.362 217.254 124.978C218.484 127.448 219.891 129.825 221.466 132.091C223.005 134.342 224.706 136.479 226.555 138.483C227.056 139.008 227.727 139.337 228.449 139.41C229.17 139.484 229.894 139.297 230.49 138.883C231.086 138.469 231.514 137.856 231.697 137.154C231.88 136.452 231.806 135.708 231.488 135.056L231.423 134.917C229.189 130.612 227.308 126.133 225.798 121.524C224.403 117.08 223.738 112.554 224.874 109.654C225.189 108.703 225.575 107.776 226.029 106.883C226.49 105.931 227.005 105.005 227.572 104.112C228.773 102.214 230.11 100.405 231.571 98.6986C233.058 96.9436 234.675 95.2439 236.365 93.5997C237.206 92.7776 238.065 91.974 238.952 91.1981L240.273 90.0434L240.928 89.4892L241.51 89.0089L241.76 88.8057C242.956 87.7827 243.71 86.336 243.862 84.7693C244.015 83.2026 243.555 81.6378 242.578 80.4031C241.602 79.1685 240.185 78.3601 238.625 78.1477C237.065 77.9353 235.484 78.3352 234.213 79.2637L234.185 79.1898Z" fill="#FE9F8A"/>
<path d="M233.354 135.416L237.104 136.34L230.638 142.224C230.638 142.224 224.883 139.638 226.463 136.783L227.553 136.174C229.322 135.199 231.394 134.928 233.354 135.416Z" fill="#FF8B7B"/>
<path d="M240.162 140.081L235.691 143.268L230.629 142.233L237.104 136.349L240.162 140.081Z" fill="#FF8B7B"/>
<path d="M265.028 32.3114C278.024 40.1445 293.302 29.6327 306.299 37.4657C307.451 28.2286 308.608 18.9607 309.772 9.662C296.776 1.82893 281.488 12.3408 268.501 4.50769C267.343 13.7818 266.185 23.0497 265.028 32.3114Z" fill="#0E71EB"/>
<path d="M283.566 27.8037C296.554 35.6368 311.841 25.125 324.838 32.958L328.302 5.15431C315.314 -2.67876 300.027 7.83308 287.04 0C285.882 9.26791 284.724 18.5358 283.566 27.8037Z" fill="#2D8CFF"/>
<path d="M296.231 263.655C296.669 263.7 297.108 263.571 297.453 263.296C297.798 263.022 298.023 262.624 298.078 262.186L330.39 3.70405C330.432 3.26586 330.302 2.82844 330.028 2.48385C329.754 2.13927 329.357 1.91442 328.921 1.85663C328.482 1.81939 328.046 1.95196 327.702 2.22696C327.359 2.50197 327.134 2.89844 327.074 3.33457L294.799 261.808C294.758 262.24 294.884 262.671 295.15 263.014C295.416 263.358 295.802 263.587 296.231 263.655Z" fill="#455A64"/>
</svg>
